# xmcd
#
# Track frame offsets: 
#        150
#        12070
#        30482
#        62965
#        74775
#        89877
#        131305
#        152895
#        184722
#        202700
#        226327
#        240620
#        257800
#
# Disc length: 3603 seconds
#
# Revision: 4
# Processed by: cddbd v1.5.2PL0 Copyright (c) Steve Scherf et al.
# Submitted via: ExactAudioCopy v1.0b3
#
DISCID=af0e110d
DTITLE=Jimmy D. Lane - Legacy
DYEAR=1998
DGENRE=Blues
TTITLE0=Hey Little Girl
TTITLE1=Clue Me
TTITLE2=Four O'Clock in the Morning
TTITLE3=Going Downtown
TTITLE4=Another Mule Kickin' in My Stall
TTITLE5=In This Bed
TTITLE6=Call It Blues
TTITLE7=One Room Country Shack
TTITLE8=Big House
TTITLE9=Baby's Mule
TTITLE10=Dem Blues
TTITLE11=Pride
TTITLE12=It's All Good
EXTD=
EXTT0=
EXTT1=
EXTT2=
EXTT3=
EXTT4=
EXTT5=
EXTT6=
EXTT7=
EXTT8=
EXTT9=
EXTT10=
EXTT11=
EXTT12=
PLAYORDER=
